G04 DipTrace 2.4.0.2*
%INBottom.gbr*%
%MOIN*%
%ADD14C,0.015*%
%ADD15C,0.04*%
%ADD16R,0.0638X0.0638*%
%ADD17C,0.0638*%
%ADD18C,0.072*%
%ADD19C,0.05*%
%ADD20C,0.05*%
%ADD21R,0.0591X0.0591*%
%ADD22C,0.0591*%
%ADD23C,0.072*%
%FSLAX44Y44*%
G04*
G70*
G90*
G75*
G01*
%LNBottom*%
%LPD*%
X19500Y30000D2*
D14*
X18750Y30750D1*
Y33500D1*
X19250Y34000D1*
X23000D1*
X24375Y32625D1*
Y31375D1*
X24750Y31000D1*
X28250D1*
X19500Y29000D2*
X20065Y29565D1*
Y32940D1*
X20750Y33625D1*
X22813D1*
X23875Y32563D1*
Y30375D1*
X24250Y30000D1*
X28250D1*
X19500Y26000D2*
X20377Y26877D1*
Y32565D1*
X21000Y33188D1*
X22750D1*
X23500Y32437D1*
Y29375D1*
X23875Y29000D1*
X28250D1*
X19500Y25000D2*
X20690Y26190D1*
Y32252D1*
X21188Y32750D1*
X22563D1*
X23125Y32188D1*
Y28375D1*
X23500Y28000D1*
X28250D1*
X22500Y25000D2*
X21938Y24437D1*
Y22750D1*
X22250Y22437D1*
X22813D1*
X23125Y22750D1*
Y26500D1*
X23625Y27000D1*
X28250D1*
X22500Y26000D2*
X21625Y25125D1*
Y22500D1*
X22063Y22062D1*
X23062D1*
X23500Y22500D1*
Y25625D1*
X23875Y26000D1*
X28250D1*
X22500Y29000D2*
X22438D1*
X21313Y27875D1*
Y22250D1*
X21875Y21687D1*
X23250D1*
X24000Y22437D1*
Y24625D1*
X24375Y25000D1*
X28250D1*
X22500Y30000D2*
X21000Y28500D1*
Y22063D1*
X21688Y21375D1*
X23500D1*
X24375Y22250D1*
Y23625D1*
X24750Y24000D1*
X28250D1*
X10460Y50000D2*
X12690D1*
X13250Y49440D1*
X3500Y31000D2*
X1000D1*
X10460Y43990D2*
X12695D1*
X13250Y43435D1*
X4875Y30000D2*
X1000D1*
X10460Y38000D2*
X12690D1*
X13250Y37440D1*
X6125Y29000D2*
X1000D1*
X10460Y32000D2*
X12690D1*
X13250Y31440D1*
X7375Y28000D2*
X1000D1*
X10460Y26000D2*
X12710D1*
X13270Y25440D1*
X3125Y27000D2*
X1000D1*
X10460Y20000D2*
X12710D1*
X13270Y19440D1*
X4250Y26000D2*
X1000D1*
X10460Y14000D2*
X12710D1*
X13270Y13440D1*
X5250Y25000D2*
X1000D1*
X10460Y8000D2*
X12710D1*
X13270Y7440D1*
X6250Y24000D2*
X1000D1*
X18125Y1000D2*
X9250D1*
X8562Y1688D1*
Y53437D1*
X9125Y54000D1*
X13877D1*
X18125D1*
X13250Y47560D2*
D15*
Y46312D1*
X14062Y45500D1*
X15625D1*
X16375Y44750D1*
Y38559D1*
Y32435D1*
Y26392D1*
Y22032D1*
Y20563D1*
Y14431D1*
Y8566D1*
Y4750D1*
X15375Y3750D1*
X13875D1*
X13250Y4375D1*
Y5540D1*
X13270Y5560D1*
X13250Y41555D2*
Y40250D1*
X14125Y39375D1*
X15559D1*
X16375Y38559D1*
X13250Y35560D2*
Y34375D1*
X14250Y33375D1*
X15435D1*
X16375Y32435D1*
X13250Y29560D2*
Y28500D1*
X14375Y27375D1*
X15392D1*
X16375Y26392D1*
X13270Y23560D2*
Y22230D1*
X14125Y21375D1*
X15563D1*
X16375Y20563D1*
X13270Y17560D2*
Y16230D1*
X14250Y15250D1*
X15556D1*
X16375Y14431D1*
X13270Y11560D2*
Y10355D1*
X14250Y9375D1*
X15566D1*
X16375Y8566D1*
X19125Y1000D2*
Y1750D1*
X18500Y2375D1*
X10250D1*
X9375Y3250D1*
Y50250D1*
X10125Y51000D1*
X18500D1*
X19125Y51625D1*
Y54000D1*
X18500Y2375D2*
Y3875D1*
X17625Y4750D1*
X16375D1*
X5125Y23000D2*
X1000D1*
X19500D2*
D14*
X17343D1*
X16375Y22032D1*
X14750Y49997D2*
Y48813D1*
X14437Y48500D1*
X11960D1*
X14750Y44000D2*
Y42813D1*
X14437Y42500D1*
X11965D1*
X11960Y42495D1*
X14750Y38000D2*
Y36813D1*
X14437Y36500D1*
X11960D1*
X14750Y32000D2*
Y30813D1*
X14437Y30500D1*
X11960D1*
X14750Y26000D2*
Y24813D1*
X14437Y24500D1*
X11980D1*
X14750Y20000D2*
Y18750D1*
X14500Y18500D1*
X11980D1*
X14750Y14000D2*
Y12813D1*
X14437Y12500D1*
X11980D1*
X14750Y8000D2*
Y6750D1*
X14500Y6500D1*
X11980D1*
X20125Y54000D2*
D15*
Y51665D1*
X20750Y51040D1*
Y51000D1*
X24750D1*
X25375Y50375D1*
Y34625D1*
Y19875D2*
Y3000D1*
X24750Y2375D1*
X20750D1*
X20125Y1750D1*
Y1000D1*
X5750Y32000D2*
X1000D1*
X21125Y1000D2*
X25875D1*
X26500Y1625D1*
Y20875D1*
Y37000D2*
Y53250D1*
X25750Y54000D1*
X21125D1*
D23*
X3500Y31000D3*
X4875Y30000D3*
X6125Y29000D3*
X7375Y28000D3*
X3125Y27000D3*
X4250Y26000D3*
X5250Y25000D3*
X6250Y24000D3*
X13877Y54000D3*
X5125Y23000D3*
X10250Y2375D3*
X25375Y34625D3*
Y19875D3*
X20750Y51000D3*
X5750Y32000D3*
X26500Y20875D3*
Y37000D3*
D16*
X28250Y31000D3*
D17*
Y30000D3*
Y29000D3*
Y28000D3*
Y27000D3*
Y26000D3*
Y25000D3*
Y24000D3*
D16*
X21125Y54000D3*
D17*
X20125D3*
X19125D3*
X18125D3*
D16*
X1000Y23000D3*
D17*
Y24000D3*
Y25000D3*
Y26000D3*
Y27000D3*
Y28000D3*
Y29000D3*
Y30000D3*
Y31000D3*
Y32000D3*
D16*
X21125Y1000D3*
D17*
X20125D3*
X19125D3*
X18125D3*
D18*
X13250Y47560D3*
X11960Y48500D3*
X13250Y49440D3*
Y41555D3*
X11960Y42495D3*
X13250Y43435D3*
Y35560D3*
X11960Y36500D3*
X13250Y37440D3*
Y29560D3*
X11960Y30500D3*
X13250Y31440D3*
X13270Y23560D3*
X11980Y24500D3*
X13270Y25440D3*
Y17560D3*
X11980Y18500D3*
X13270Y19440D3*
Y11560D3*
X11980Y12500D3*
X13270Y13440D3*
Y5560D3*
X11980Y6500D3*
X13270Y7440D3*
D19*
X14750Y46997D3*
D20*
Y49997D3*
D19*
X10460Y50000D3*
D20*
Y47000D3*
D19*
X14750Y41000D3*
D20*
Y44000D3*
D19*
X10460Y43990D3*
D20*
Y40990D3*
D19*
X14750Y35000D3*
D20*
Y38000D3*
D19*
X10460D3*
D20*
Y35000D3*
D19*
X14750Y29000D3*
D20*
Y32000D3*
D19*
X10460D3*
D20*
Y29000D3*
D19*
X14750Y23000D3*
D20*
Y26000D3*
D19*
X10460D3*
D20*
Y23000D3*
D19*
X14750Y17000D3*
D20*
Y20000D3*
D19*
X10460D3*
D20*
Y17000D3*
D19*
X14750Y11000D3*
D20*
Y14000D3*
D19*
X10460D3*
D20*
Y11000D3*
D19*
X14750Y5000D3*
D20*
Y8000D3*
D19*
X10460D3*
D20*
Y5000D3*
D21*
X19500Y32000D3*
D22*
Y31000D3*
Y30000D3*
Y29000D3*
Y28000D3*
Y27000D3*
Y26000D3*
Y25000D3*
Y24000D3*
Y23000D3*
X22500Y32000D3*
Y31000D3*
Y30000D3*
Y29000D3*
Y28000D3*
Y27000D3*
Y26000D3*
Y25000D3*
Y24000D3*
Y23000D3*
M02*
