M48
INCH
T01C0.022
T02C0.028
T03C0.0354
T04C0.0402
%
T01
X+014750Y+046997
X+014750Y+044000
X+014750Y+041000
X+014750Y+038000
X+014750Y+035000
X+014750Y+032000
X+014750Y+029000
X+014750Y+026000
X+014750Y+023000
X+014750Y+020000
X+014750Y+017000
X+014750Y+014000
X+014750Y+011000
X+014750Y+008000
X+014750Y+005000
X+010460Y+005000
X+010460Y+008000
X+010460Y+011000
X+010460Y+014000
X+010460Y+017000
X+010460Y+020000
X+010460Y+023000
X+010460Y+026000
X+010460Y+029000
X+010460Y+032000
X+010460Y+035000
X+010460Y+038000
X+010460Y+040990
X+010460Y+043990
X+010460Y+047000
X+010460Y+050000
X+014750Y+049997
T02
X+013250Y+047560
X+011960Y+048500
X+013250Y+049440
X+013877Y+054000
X+020750Y+051000
X+013250Y+043435
X+011960Y+042495
X+013250Y+041555
X+013250Y+037440
X+011960Y+036500
X+013250Y+035560
X+013250Y+031440
X+011960Y+030500
X+013250Y+029560
X+013270Y+025440
X+011980Y+024500
X+013270Y+023560
X+013270Y+019440
X+011980Y+018500
X+013270Y+017560
X+013270Y+013440
X+011980Y+012500
X+013270Y+011560
X+013270Y+007440
X+011980Y+006500
X+013270Y+005560
X+010250Y+002375
X+005125Y+023000
X+006250Y+024000
X+005250Y+025000
X+004250Y+026000
X+003125Y+027000
X+004875Y+030000
X+006125Y+029000
X+007375Y+028000
X+005750Y+032000
X+003500Y+031000
X+025375Y+034625
X+026500Y+037000
X+026500Y+020875
X+025375Y+019875
T03
X+019500Y+032000
X+019500Y+031000
X+019500Y+030000
X+019500Y+029000
X+019500Y+028000
X+019500Y+027000
X+019500Y+026000
X+019500Y+025000
X+019500Y+024000
X+019500Y+023000
X+022500Y+023000
X+022500Y+024000
X+022500Y+025000
X+022500Y+026000
X+022500Y+027000
X+022500Y+028000
X+022500Y+029000
X+022500Y+030000
X+022500Y+031000
X+022500Y+032000
T04
X+028250Y+031000
X+028250Y+030000
X+028250Y+029000
X+028250Y+028000
X+028250Y+027000
X+028250Y+026000
X+028250Y+025000
X+028250Y+024000
X+021125Y+001000
X+020125Y+001000
X+019125Y+001000
X+018125Y+001000
X+001000Y+023000
X+001000Y+024000
X+001000Y+025000
X+001000Y+026000
X+001000Y+027000
X+001000Y+028000
X+001000Y+029000
X+001000Y+030000
X+001000Y+031000
X+001000Y+032000
X+018125Y+054000
X+019125Y+054000
X+020125Y+054000
X+021125Y+054000
T00
M30
